# Blender v2.81 (sub 16) OBJ File: 'woods.blend'
# www.blender.org
mtllib woods.mtl
o fire_Cube.001
v -1.661870 -0.125033 -0.139884
v -1.661870 0.250365 -0.936420
v -1.497574 -0.125033 -0.139884
v -1.497574 0.250365 -0.936420
v -1.661870 -0.270715 -0.208543
v -1.661870 0.104683 -1.005078
v -1.497574 -0.270715 -0.208543
v -1.497574 0.104683 -1.005078
v -2.324719 -0.123453 -0.353610
v -1.763577 0.251945 -0.918931
v -2.208114 -0.123453 -0.237867
v -1.646972 0.251945 -0.803188
v -2.276350 -0.269135 -0.402339
v -1.715208 0.106264 -0.967660
v -2.159746 -0.269135 -0.286596
v -1.598603 0.106264 -0.851917
v -2.644594 -0.121873 -0.972260
v -1.848081 0.253526 -0.978169
v -2.643375 -0.121873 -0.807968
v -1.846862 0.253526 -0.813878
v -2.575938 -0.267555 -0.972769
v -1.779424 0.107844 -0.978679
v -2.574719 -0.267555 -0.808478
v -1.778205 0.107844 -0.814387
v -2.435792 -0.120293 -1.636676
v -1.866323 0.255106 -1.079743
v -2.550667 -0.120293 -1.519216
v -1.981198 0.255106 -0.962283
v -2.386706 -0.265975 -1.588671
v -1.817237 0.109424 -1.031738
v -2.501581 -0.265975 -1.471210
v -1.932112 0.109424 -0.914278
v -1.819533 -0.118713 -1.961132
v -1.807714 0.256686 -1.164685
v -1.983810 -0.118713 -1.958695
v -1.971991 0.256686 -1.162247
v -1.818514 -0.264394 -1.892482
v -1.806695 0.111004 -1.096034
v -1.982791 -0.264394 -1.890044
v -1.970973 0.111004 -1.093596
v -1.153585 -0.117132 -1.757265
v -1.706278 0.258266 -1.183680
v -1.271894 -0.117132 -1.871265
v -1.824587 0.258266 -1.297680
v -1.201225 -0.262814 -1.707824
v -1.753918 0.112584 -1.134239
v -1.319535 -0.262814 -1.821824
v -1.872227 0.112584 -1.248239
v -0.824566 -0.115552 -1.143430
v -1.620904 0.259846 -1.125703
v -0.828222 -0.115552 -1.307685
v -1.624561 0.259846 -1.289958
v -0.893207 -0.261234 -1.141902
v -1.689545 0.114165 -1.124174
v -0.896864 -0.261234 -1.306157
v -1.693202 0.114165 -1.288429
v -1.023487 -0.113972 -0.475988
v -1.601156 0.261427 -1.024410
v -0.910368 -0.113972 -0.595140
v -1.488037 0.261427 -1.143562
v -1.073280 -0.259654 -0.523260
v -1.650949 0.115745 -1.071682
v -0.960160 -0.259654 -0.642412
v -1.537830 0.115745 -1.190834
vt 1.000000 0.000000
vt 0.000000 1.000000
vt 0.000000 0.000000
vt 1.000000 0.000000
vt 0.000000 1.000000
vt 0.000000 0.000000
vt 1.000000 0.000000
vt 0.000000 1.000000
vt 0.000000 0.000000
vt 0.000000 0.000000
vt 1.000000 1.000000
vt 0.000000 1.000000
vt 1.000000 0.000000
vt 0.000000 0.000000
vt 0.000000 1.000000
vt 1.000000 0.000000
vt 0.000000 1.000000
vt 0.000000 0.000000
vt 1.000000 0.000000
vt 0.000000 1.000000
vt 0.000000 0.000000
vt 1.000000 0.000000
vt 0.000000 1.000000
vt 0.000000 0.000000
vt 1.000000 0.000000
vt 0.000000 1.000000
vt 0.000000 0.000000
vt 1.000000 0.000000
vt 0.000000 1.000000
vt 0.000000 0.000000
vt 1.000000 0.000000
vt 0.000000 1.000000
vt 0.000000 0.000000
vt 1.000000 0.000000
vt 0.000000 1.000000
vt 0.000000 0.000000
vt 1.000000 0.000000
vt 0.000000 1.000000
vt 0.000000 0.000000
vt 1.000000 0.000000
vt 0.000000 1.000000
vt 0.000000 0.000000
vt 1.000000 0.000000
vt 0.000000 0.000000
vt 1.000000 1.000000
vt 0.000000 1.000000
vt 1.000000 0.000000
vt 0.000000 1.000000
vt 0.000000 0.000000
vt 1.000000 0.000000
vt 0.000000 1.000000
vt 0.000000 0.000000
vt 1.000000 0.000000
vt 0.000000 1.000000
vt 0.000000 0.000000
vt 0.000000 0.000000
vt 1.000000 1.000000
vt 0.000000 1.000000
vt 1.000000 0.000000
vt 0.000000 1.000000
vt 0.000000 0.000000
vt 0.000000 0.000000
vt 1.000000 1.000000
vt 0.000000 1.000000
vt 1.000000 0.000000
vt 0.000000 1.000000
vt 0.000000 0.000000
vt 1.000000 0.000000
vt 0.000000 1.000000
vt 0.000000 0.000000
vt 0.000000 0.000000
vt 1.000000 1.000000
vt 0.000000 1.000000
vt 1.000000 0.000000
vt 0.000000 1.000000
vt 0.000000 0.000000
vt 1.000000 0.000000
vt 0.000000 1.000000
vt 0.000000 0.000000
vt 0.000000 0.000000
vt 1.000000 1.000000
vt 0.000000 1.000000
vt 1.000000 0.000000
vt 0.000000 1.000000
vt 0.000000 0.000000
vt 1.000000 0.000000
vt 0.000000 1.000000
vt 0.000000 0.000000
vt 1.000000 0.000000
vt 1.000000 0.000000
vt 0.000000 1.000000
vt 0.000000 0.000000
vt 1.000000 0.000000
vt 0.000000 1.000000
vt 0.000000 0.000000
vt 1.000000 0.000000
vt 0.000000 1.000000
vt 0.000000 0.000000
vt 1.000000 0.000000
vt 0.000000 1.000000
vt 0.000000 0.000000
vt 0.000000 0.000000
vt 1.000000 1.000000
vt 0.000000 1.000000
vt 1.000000 0.000000
vt 0.000000 1.000000
vt 0.000000 0.000000
vt 1.000000 0.000000
vt 0.000000 1.000000
vt 0.000000 0.000000
vt 1.000000 0.000000
vt 0.000000 1.000000
vt 0.000000 0.000000
vt 0.000000 0.000000
vt 1.000000 1.000000
vt 0.000000 1.000000
vt 0.000000 0.000000
vt 1.000000 1.000000
vt 0.000000 1.000000
vt 1.000000 1.000000
vt 0.000000 1.000000
vt 0.000000 0.000000
vt 1.000000 1.000000
vt 1.000000 1.000000
vt 1.000000 1.000000
vt 1.000000 0.000000
vt 1.000000 1.000000
vt 1.000000 1.000000
vt 1.000000 1.000000
vt 1.000000 1.000000
vt 1.000000 1.000000
vt 1.000000 1.000000
vt 1.000000 1.000000
vt 1.000000 1.000000
vt 1.000000 1.000000
vt 1.000000 1.000000
vt 1.000000 1.000000
vt 1.000000 1.000000
vt 1.000000 1.000000
vt 1.000000 0.000000
vt 1.000000 1.000000
vt 1.000000 0.000000
vt 1.000000 1.000000
vt 1.000000 1.000000
vt 1.000000 0.000000
vt 1.000000 1.000000
vt 1.000000 1.000000
vt 1.000000 1.000000
vt 1.000000 1.000000
vt 1.000000 1.000000
vt 1.000000 1.000000
vt 1.000000 1.000000
vt 1.000000 1.000000
vt 1.000000 0.000000
vt 1.000000 1.000000
vt 1.000000 1.000000
vt 1.000000 1.000000
vt 1.000000 0.000000
vt 1.000000 0.000000
vt 1.000000 0.000000
vn -0.0000 -0.9046 -0.4263
vn -1.0000 -0.0000 0.0000
vn -0.0000 0.9046 0.4263
vn 1.0000 0.0000 0.0000
vn 0.0000 0.4263 -0.9046
vn 0.0000 -0.4263 0.9046
vn 0.3003 -0.9046 -0.3026
vn -0.7097 0.0000 -0.7045
vn -0.3003 0.9046 0.3026
vn 0.7097 0.0000 0.7045
vn 0.6373 0.4263 -0.6420
vn -0.6373 -0.4263 0.6420
vn 0.4263 -0.9046 -0.0032
vn -0.0074 -0.0000 -1.0000
vn -0.4263 0.9046 0.0032
vn 0.0074 -0.0000 1.0000
vn 0.9045 0.4263 -0.0067
vn -0.9045 -0.4263 0.0067
vn 0.3048 -0.9046 0.2981
vn 0.6992 -0.0000 -0.7149
vn -0.3048 0.9046 -0.2981
vn -0.6992 0.0000 0.7149
vn 0.6467 0.4263 0.6325
vn -0.6467 -0.4263 -0.6325
vn 0.0063 -0.9046 0.4263
vn 0.9999 -0.0000 -0.0148
vn -0.0063 0.9046 -0.4263
vn -0.9999 0.0000 0.0148
vn 0.0134 0.4263 0.9045
vn -0.0134 -0.4263 -0.9045
vn -0.2958 -0.9046 0.3070
vn 0.7201 0.0000 0.6939
vn 0.2958 0.9046 -0.3070
vn -0.7201 -0.0000 -0.6939
vn -0.6277 0.4263 0.6514
vn 0.6277 -0.4263 -0.6514
vn -0.4262 -0.9046 0.0095
vn 0.0223 0.0000 0.9998
vn 0.4262 0.9046 -0.0095
vn -0.0223 -0.0000 -0.9998
vn -0.9043 0.4263 0.0201
vn 0.9044 -0.4263 -0.0201
vn -0.3092 -0.9046 -0.2935
vn -0.6885 0.0000 0.7252
vn 0.3092 0.9046 0.2935
vn 0.6885 -0.0000 -0.7252
vn -0.6560 0.4263 -0.6228
vn 0.6560 -0.4263 0.6228
vn -0.9044 0.4263 0.0201
usemtl brown
s off
f 2/1/1 3/2/1 1/3/1
f 4/4/2 7/5/2 3/6/2
f 8/7/3 5/8/3 7/9/3
f 5/10/4 2/11/4 1/12/4
f 7/13/5 1/12/5 3/6/5
f 8/14/6 2/11/6 6/15/6
f 10/16/7 11/17/7 9/18/7
f 12/19/8 15/20/8 11/21/8
f 16/22/9 13/23/9 15/24/9
f 14/25/10 9/26/10 13/27/10
f 15/28/11 9/26/11 11/21/11
f 12/19/12 14/29/12 16/30/12
f 18/31/13 19/32/13 17/33/13
f 20/34/14 23/35/14 19/36/14
f 24/37/15 21/38/15 23/39/15
f 22/40/16 17/41/16 21/42/16
f 23/43/17 17/41/17 19/36/17
f 24/44/18 18/45/18 22/46/18
f 26/47/19 27/48/19 25/49/19
f 28/50/20 31/51/20 27/52/20
f 32/53/21 29/54/21 31/55/21
f 29/56/22 26/57/22 25/58/22
f 31/59/23 25/58/23 27/52/23
f 28/50/24 30/60/24 32/61/24
f 33/62/25 36/63/25 35/64/25
f 36/65/26 39/66/26 35/67/26
f 40/68/27 37/69/27 39/70/27
f 37/71/28 34/72/28 33/73/28
f 39/74/29 33/73/29 35/67/29
f 36/65/30 38/75/30 40/76/30
f 42/77/31 43/78/31 41/79/31
f 43/80/32 48/81/32 47/82/32
f 48/83/33 45/84/33 47/85/33
f 46/86/34 41/87/34 45/88/34
f 47/89/35 41/87/35 43/80/35
f 44/90/36 46/91/36 48/92/36
f 50/93/37 51/94/37 49/95/37
f 52/96/38 55/97/38 51/98/38
f 56/99/39 53/100/39 55/101/39
f 53/102/40 50/103/40 49/104/40
f 55/105/41 49/104/41 51/98/41
f 52/96/42 54/106/42 56/107/42
f 58/108/43 59/109/43 57/110/43
f 60/111/44 63/112/44 59/113/44
f 63/114/45 62/115/45 61/116/45
f 61/117/46 58/118/46 57/119/46
f 59/113/47 61/120/47 57/119/47
f 60/111/48 62/121/48 64/122/48
f 2/1/1 4/123/1 3/2/1
f 4/4/2 8/124/2 7/5/2
f 8/7/3 6/125/3 5/8/3
f 5/10/4 6/126/4 2/11/4
f 7/13/5 5/127/5 1/12/5
f 8/14/6 4/4/6 2/11/6
f 10/16/7 12/128/7 11/17/7
f 12/19/8 16/129/8 15/20/8
f 16/22/9 14/130/9 13/23/9
f 14/25/10 10/131/10 9/26/10
f 15/28/11 13/132/11 9/26/11
f 12/19/12 10/131/12 14/29/12
f 18/31/13 20/133/13 19/32/13
f 20/34/14 24/134/14 23/35/14
f 24/37/15 22/135/15 21/38/15
f 22/40/16 18/45/16 17/41/16
f 23/43/17 21/136/17 17/41/17
f 24/44/18 20/34/18 18/45/18
f 26/47/19 28/137/19 27/48/19
f 28/50/20 32/138/20 31/51/20
f 32/53/21 30/139/21 29/54/21
f 29/56/22 30/140/22 26/57/22
f 31/59/23 29/141/23 25/58/23
f 28/50/24 26/57/24 30/60/24
f 33/62/25 34/142/25 36/63/25
f 36/65/26 40/143/26 39/66/26
f 40/68/27 38/144/27 37/69/27
f 37/71/28 38/145/28 34/72/28
f 39/74/29 37/146/29 33/73/29
f 36/65/30 34/72/30 38/75/30
f 42/77/31 44/147/31 43/78/31
f 43/80/32 44/90/32 48/81/32
f 48/83/33 46/148/33 45/84/33
f 46/86/34 42/149/34 41/87/34
f 47/89/35 45/150/35 41/87/35
f 44/90/36 42/149/36 46/91/36
f 50/93/37 52/151/37 51/94/37
f 52/96/38 56/152/38 55/97/38
f 56/99/39 54/153/39 53/100/39
f 53/102/40 54/154/40 50/103/40
f 55/105/49 53/155/49 49/104/49
f 52/96/42 50/103/42 54/106/42
f 58/108/43 60/156/43 59/109/43
f 60/111/44 64/157/44 63/112/44
f 63/114/45 64/158/45 62/115/45
f 61/117/46 62/159/46 58/118/46
f 59/113/47 63/160/47 61/120/47
f 60/111/48 58/118/48 62/121/48
